<svg xmlns="http://www.w3.org/2000/svg" width="229.017" height="223.369" viewBox="0 0 229.017 223.369"><defs><style>.a,.b,.c,.d,.e,.h{fill:none;}.a,.e,.f,.h{stroke:#0f116c;}.a,.b,.c,.d,.e,.f,.h{stroke-miterlimit:10;}.a,.d{stroke-width:5px;}.b{stroke:#3b5ca0;stroke-width:10px;}.c,.g{stroke:#b22b2b;}.c{stroke-width:15px;}.d{stroke:#83bbec;}.e{stroke-width:17px;}.f{fill:#0f116c;}.f,.g,.h{stroke-width:3px;}.g{fill:#b22b2b;}</style></defs><g transform="translate(2.5 2.5)"><path class="a" d="M197.741,250.136H42.85V48H197.741V150.362" transform="translate(-42.85 -48)"/><circle class="a" cx="35.312" cy="35.312" r="35.312" transform="translate(97.659 94.737)"/><line class="b" x2="60.884" transform="translate(26.789 119.09)"/><line class="b" x2="60.891" transform="translate(26.787 141.458)"/><line class="b" x2="49.681" transform="translate(27.034 162.925)"/><path class="c" d="M534.33,551.249c1.657,1.21,10.424,10.472,10.424,10.472l20.717-21.431" transform="translate(-415.436 -421.2)"/><path class="d" d="M174.73,237.2,204.441,218.2l30.2,5.358L266.3,189.95" transform="translate(-142.827 -155.611)"/><line class="e" x2="14.125" y2="14.125" transform="translate(158.544 154.646)"/><path class="a" d="M738.5,745.18l40.912,38.5L793.051,771.5,751.389,731.56l-5.583.975-5.358,4.87Z" transform="translate(-570.215 -566.199)"/><circle class="f" cx="7.061" cy="7.061" r="7.061" transform="translate(26.061 73.792)"/><path class="g" d="M7.061,0A7.061,7.061,0,1,1,0,7.061,7.061,7.061,0,0,1,7.061,0Z" transform="translate(54.798 55.77)"/><circle class="f" cx="7.061" cy="7.061" r="7.061" transform="translate(84.509 60.642)"/><circle class="f" cx="7.061" cy="7.061" r="7.061" transform="translate(116.168 27.52)"/><line class="h" y1="44.325" transform="translate(155.133 158.541)"/></g></svg>