<svg xmlns="http://www.w3.org/2000/svg" xmlns:xlink="http://www.w3.org/1999/xlink" width="584" height="542.389" viewBox="0 0 584 542.389"><defs><style>.a{fill:#83bbec;}.b{fill:url(#a);}.c{fill:#0f116c;}.c,.d,.e,.f{stroke:#0f116c;stroke-miterlimit:10;}.c,.d{stroke-width:3px;}.d,.e,.f,.g,.i{fill:none;}.e,.g{stroke-width:2px;}.g{stroke:#b22b2b;}.h{stroke:none;}</style><radialGradient id="a" cx="0.846" cy="0.5" r="0.79" gradientTransform="translate(1.7 0.987) rotate(179.109)" gradientUnits="objectBoundingBox"><stop offset="0" stop-color="#fff8f8" stop-opacity="0"/><stop offset="1" stop-color="#0f116c"/></radialGradient></defs><g transform="translate(0 1.193)"><rect class="a" width="584" height="500" transform="translate(0 20.5)"/><g transform="translate(553.5 539.5) rotate(180)"><path class="b" d="M521.359,539.231H.5V.039L515.428-.5,458.813,211.941l-56.076,60.389,57.694,52.841Z" transform="translate(-0.231 0)"/><path class="c" d="M305.3.07,35.482,274.357,305.3,539.456H0L.307.377Z" transform="translate(0 -0.263)"/><g transform="translate(44.964 -0.5)"><path class="d" d="M559.539,539.456,498.594,325.478l-57.558-53.267,56.334-59.387L553.607.07,352.867.377,83.46,274.659l270.555,264.8Z" transform="translate(-83.46 0.237)"/><line class="e" x1="101.548" y1="241.023" transform="translate(284.786 0.614)"/><line class="e" y1="223.282" x2="17.741" transform="translate(403.564 0.614)"/><line class="e" x1="245.915" y1="110.728" transform="translate(123.804 148.806)"/><line class="e" x1="357.252" y2="2.446" transform="translate(0 272.449)"/><line class="e" x1="247.752" y2="110.114" transform="translate(123.191 284.754)"/><line class="e" x1="96.656" y2="239.186" transform="translate(290.903 300.2)"/><line class="e" x2="22.024" y2="223.891" transform="translate(404.178 315.495)"/><line class="f" x1="265.493" y2="273.445" transform="translate(77.237 0.614)"/><line class="f" x1="267.33" y2="273.445" transform="translate(128.73 0.614)"/><line class="f" x1="266.716" y2="272.83" transform="translate(171.107 0.614)"/><line class="f" x1="273.445" y2="273.445" transform="translate(196.799)"/><line class="f" x1="241.637" y2="247.752" transform="translate(221.878 25.693)"/><line class="f" x1="218.39" y2="223.282" transform="translate(238.396 50.162)"/><line class="f" x1="194.535" y2="200.041" transform="translate(256.137 72.795)"/><line class="f" y1="184.746" x2="180.458" transform="translate(266.54 88.201)"/><line class="f" x1="165.782" y2="169.451" transform="translate(276.938 103.51)"/><line class="f" y1="156.607" x2="154.156" transform="translate(285.504 116.365)"/><line class="f" y1="145.515" x2="143.241" transform="translate(293.714 127.121)"/><line class="f" y1="135.806" x2="133.969" transform="translate(299.57 137.182)"/><line class="f" y1="129.078" x2="127.849" transform="translate(304.467 143.915)"/><line class="f" y1="120.948" x2="121.298" transform="translate(308.745 151.436)"/><line class="f" y1="116.266" x2="115.361" transform="translate(313.211 156.304)"/><line class="f" y1="111.288" x2="109.855" transform="translate(317.483 161.275)"/><line class="f" y1="107.215" x2="105.05" transform="translate(321.761 165.339)"/><line class="f" y1="101.467" x2="98.876" transform="translate(326.033 171.086)"/><line class="f" y1="96.554" x2="93.386" transform="translate(330.305 175.991)"/><line class="f" y1="91.419" x2="87.804" transform="translate(334.583 181.118)"/><line class="f" y1="86.705" x2="83.5" transform="translate(337.498 186.315)"/><line class="f" y1="82.918" x2="79.923" transform="translate(340.159 190.439)"/><line class="f" y1="77.59" x2="75.036" transform="translate(343.823 194.724)"/><line class="f" y1="73.592" x2="71.276" transform="translate(346.36 199.004)"/><line class="f" y1="69.816" x2="67.424" transform="translate(348.989 202.68)"/><line class="f" y1="66.761" x2="64.358" transform="translate(351.44 205.736)"/><line class="f" y1="63.087" x2="60.689" transform="translate(353.886 209.413)"/><line class="f" y1="60.032" x2="58.319" transform="translate(355.648 212.469)"/><line class="f" x2="270.39" y2="264.879" transform="translate(77.241 274.507)"/><line class="f" x2="270.999" y2="264.879" transform="translate(128.735 274.507)"/><line class="f" x2="276.505" y2="265.493" transform="translate(171.107 273.893)"/><line class="f" x1="272.836" y1="266.107" transform="translate(196.799 273.893)"/><line class="f" x2="246.534" y2="238.577" transform="translate(221.878 273.893)"/><line class="f" x2="223.896" y2="216.559" transform="translate(238.396 273.893)"/><line class="f" x2="199.427" y2="194.529" transform="translate(256.137 273.284)"/><line class="f" x2="185.355" y2="181.072" transform="translate(266.54 273.177)"/><line class="f" x2="170.06" y2="164.554" transform="translate(276.938 273.162)"/><line class="f" x2="158.439" y2="154.156" transform="translate(285.504 273.153)"/><line class="f" x2="146.204" y2="141.312" transform="translate(294.064 273.143)"/><line class="f" x2="138.867" y2="133.969" transform="translate(299.57 273.138)"/><line class="f" x2="132.132" y2="128.463" transform="translate(304.467 273.134)"/><line class="f" x2="126.632" y2="124.186" transform="translate(308.745 272.516)"/><line class="f" x2="119.897" y2="117.451" transform="translate(313.642 273.126)"/><line class="f" x2="114.009" y2="111.687" transform="translate(317.699 272.771)"/><line class="f" x2="108.891" y2="107.054" transform="translate(321.594 272.504)"/><line class="f" x2="102.771" y2="100.939" transform="translate(325.877 272.5)"/><line class="f" x2="97.265" y2="95.433" transform="translate(330.16 272.497)"/><line class="f" x2="91.759" y2="89.927" transform="translate(333.829 272.493)"/><line class="f" x2="86.932" y2="84.965" transform="translate(337.433 272.555)"/><line class="f" x2="82.584" y2="80.752" transform="translate(340.558 272.488)"/><line class="f" x2="78.36" y2="76.405" transform="translate(343.559 272.55)"/><line class="f" x2="73.635" y2="71.173" transform="translate(346.883 273.065)"/><line class="f" x2="70.931" y2="67.747" transform="translate(348.542 272.637)"/><line class="f" x2="69.708" y2="66.524" transform="translate(348.542 270.797)"/><line class="f" x2="67.262" y2="63.469" transform="translate(350.374 270.796)"/><line class="f" x2="62.979" y2="59.181" transform="translate(354.048 272.632)"/><line class="f" x2="59.337" y2="55.668" transform="translate(356.461 273.089)"/></g></g><g class="g" transform="translate(11 35.5)"><rect class="h" width="558" height="472"/><rect class="i" x="1" y="1" width="556" height="470"/></g></g></svg>