<svg xmlns="http://www.w3.org/2000/svg" width="205.337" height="206.543" viewBox="0 0 205.337 206.543"><defs><style>.a,.b,.c,.e,.f{fill:none;}.a,.f{stroke:#0f116c;}.a,.c,.e,.f{stroke-miterlimit:10;}.a,.b{stroke-width:15px;}.b,.c{stroke:#83bbec;}.c,.f{stroke-width:5px;}.d{fill:#0f116c;}.e{stroke:#3b5ca0;stroke-width:10px;}</style></defs><g transform="translate(2.37 2.5)"><line class="a" x2="126.928" y2="0.959" transform="translate(0 33.694)"/><path class="b" d="M130.279,0H0" transform="translate(70.888 163.973)"/><path class="c" d="M447.246,407.805a24.188,24.188,0,1,1-48.376,0c0-13.357,10.829-24.665,24.188-24.665S447.246,394.449,447.246,407.805Z" transform="translate(-323.672 -308.253)"/><circle class="d" cx="9.579" cy="9.579" r="9.579" transform="translate(89.807 89.496)"/><path class="e" d="M227.9,349.868s21.073-45.507,64.419-45.261c42.4.241,63.465,44.782,63.465,44.782s-13.412,41.2-62.027,41.438S227.9,349.868,227.9,349.868Z" transform="translate(-193.892 -248.64)"/><rect class="f" width="200.337" height="201.543" transform="translate(0.13)"/></g></svg>