<svg xmlns="http://www.w3.org/2000/svg" width="202.941" height="207.031" viewBox="0 0 202.941 207.031"><defs><style>.a,.b,.c,.d{fill:none;stroke-miterlimit:10;}.a{stroke:#0f116c;}.a,.b{stroke-width:5px;}.b,.c{stroke:#3b6aaa;}.c,.d{stroke-width:10px;}.d{stroke:#83bbec;}</style></defs><g transform="translate(5 2.5)"><path class="a" d="M389.31,591.272v99.661H221V590.92" transform="translate(-208.245 -488.902)"/><path class="a" d="M221,259.94V243H389.31v16.585" transform="translate(-208.245 -243)"/><path class="b" d="M257.5,297.4l43.332-4.384,8.275-.836,24.924-9.676,69.494,18.74" transform="translate(-234.042 -270.918)"/><path class="b" d="M360.5,403.8l2.639,9.09h18.139L401.4,392.31l42.957,27.032,16.127,21.112v5.694l-6.146,3.4h-6.724l-18.8-18.766" transform="translate(-306.84 -348.529)"/><path class="b" d="M581.1,576.71l-1.173,5.278-4.4,3.812h-7.137L546.5,568.5" transform="translate(-438.301 -473.056)"/><path class="b" d="M524.549,618.1l.018,4.985-4.692,4.692h-6.724L488.5,614.2" transform="translate(-397.308 -505.356)"/><path class="b" d="M539.389,660.5v6.375L531,673.76" transform="translate(-427.346 -538.079)"/><path class="b" d="M257.5,548.59c0,.856,11.289,8.917,11.289,8.917" transform="translate(-234.042 -458.984)"/><rect class="b" width="29.029" height="14.954" transform="translate(24.935 115.707) rotate(-52.28)"/><rect class="b" width="29.029" height="14.954" transform="translate(41.55 124.03) rotate(-52.28)"/><rect class="b" width="29.029" height="14.954" transform="translate(57.971 133.122) rotate(-52.28)"/><rect class="b" width="23.959" height="14.954" transform="translate(75.733 139.958) rotate(-52.28)"/><line class="b" y1="34.014" x2="21.405" transform="translate(53.66 21.259)"/><line class="b" x1="10.849" y2="10.263" transform="translate(158.634 79.317)"/><line class="c" x2="140.471" transform="translate(29.02 159.073)"/><line class="c" x2="102.335" y2="0.88" transform="translate(29.029 177.546)"/><rect class="d" width="23.458" height="82.689" transform="translate(0 18.326)"/><rect class="d" width="23.458" height="82.689" transform="translate(169.483 18.326)"/></g></svg>