<svg xmlns="http://www.w3.org/2000/svg" xmlns:xlink="http://www.w3.org/1999/xlink" width="584" height="543.152" viewBox="0 0 584 543.152"><defs><style>.a{fill:#83bbec;}.b{fill:url(#a);}.c,.d,.f,.g,.i,.m,.o{fill:none;}.c,.d,.e,.f,.g,.h,.i,.j,.k,.l{stroke:#0f116c;stroke-miterlimit:10;}.c,.l{stroke-width:3px;}.d,.e,.m{stroke-width:2px;}.g,.h{stroke-width:0.5px;}.h,.j,.k,.l{fill:#0f116c;}.i,.j{stroke-width:0.25px;}.m{stroke:#b22b2b;}.n{stroke:none;}</style><radialGradient id="a" cx="0.535" cy="0.257" r="1.269" gradientTransform="matrix(0.532, -0.847, 0.605, 0.38, 0.095, 0.612)" gradientUnits="objectBoundingBox"><stop offset="0" stop-color="#e0dddd" stop-opacity="0"/><stop offset="1" stop-color="#0f116c"/></radialGradient></defs><g transform="translate(0 1.5)"><rect class="a" width="584" height="500" transform="translate(0 21.692)"/><g transform="translate(655.427) rotate(90)"><path class="b" d="M540.152,544.281H0V184H217.071l23.837,39.431L264.674,327.68l-7.022,56.176,35.11-8.1,45.913,49.694,34.57-28.628L277.638,279.067l9.723-10.263,1.62-5.942-3.241-13.5L342.381,184H540.152Z" transform="translate(0 -0.552)"/><g transform="translate(0 182.8)"><path class="c" d="M864.575,564.888,705.5,461.325,723.325,443.5l141.25,60.7Z" transform="translate(-324.423 -302.682)"/><path class="c" d="M800.656,677.79,654,547.5l-87.5,71.3,19.7,92.458H800.656Z" transform="translate(-260.504 -350.507)"/><path class="c" d="M777.2,451.958V329.9l-252.521,6.266-9.183,9.723,74,63.2,41.051-35.11,5.4,17.285Z" transform="translate(-237.052 -250.444)"/><path class="d" d="M728.27,375.678l146.651,57.348L728,375.592,775.533,334" transform="translate(-334.77 -252.329)"/><path class="c" d="M586.33,184,530.5,249.628l3.025,13.18L716.145,184Z" transform="translate(-243.95 -183.352)"/><path class="c" d="M942.146,262.808V184H874.19" transform="translate(-401.995 -183.352)"/><path class="c" d="M526.627,329.9l-1.945,6.266-9.183,9.723L610.027,464.16" transform="translate(-237.052 -250.444)"/><path class="c" d="M257.571,383.937l6.833-55.447L240.945,223.4,217.071,184H0V544.1H325.7" transform="translate(0 -183.352)"/><line class="d" x2="96.687" y2="267.915" transform="translate(102.629 0.648)"/><line class="d" x2="52.935" y2="202.557" transform="translate(193.914 0.648)"/><line class="d" x2="35.65" y2="156.104" transform="translate(225.783 15.232)"/><line class="d" x1="35.65" y2="81.023" transform="translate(440.764 0.648)"/><line class="d" x1="34.57" y2="84.804" transform="translate(372.705 0.648)"/><line class="d" y1="49.154" x2="48.614" transform="translate(324.091 85.452)"/><line class="d" y1="32.949" x2="99.388" transform="translate(289.521 46.561)"/><line class="d" x1="91.826" y2="15.664" transform="translate(287.361 69.788)"/><line class="d" x2="7.562" y2="130.717" transform="translate(281.959 230.213)"/><line class="e" x1="12.964" y1="75.621" transform="translate(292.762 192.402)"/><line class="d" x1="3.781" y1="19.445" transform="translate(311.127 240.476)"/><line class="d" y1="3.781" x2="16.745" transform="translate(281.959 226.432)"/><line class="d" x1="12.423" y1="14.044" transform="translate(298.704 226.432)"/><line class="d" y1="3.241" x2="17.285" transform="translate(281.959 230.213)"/><line class="d" y1="3.781" x2="17.825" transform="translate(283.04 241.016)"/><line class="d" y1="4.321" x2="19.445" transform="translate(283.58 252.899)"/><line class="d" y1="4.321" x2="21.066" transform="translate(284.12 265.323)"/><line class="d" y1="3.781" x2="23.767" transform="translate(285.2 282.067)"/><line class="d" y1="5.942" x2="27.008" transform="translate(285.74 299.892)"/><line class="d" y1="5.402" x2="29.708" transform="translate(287.901 323.659)"/><line class="d" y1="6.482" x2="34.03" transform="translate(289.521 351.747)"/><line class="d" y1="89.665" x2="137.199" transform="translate(339.755 271.264)"/><line class="d" y1="89.665" x2="128.556" transform="translate(320.31 245.877)"/><line class="d" y1="83.724" x2="112.352" transform="translate(314.909 226.972)"/><line class="d" y1="76.161" x2="99.388" transform="translate(310.047 210.767)"/><line class="d" y1="56.176" x2="94.527" transform="translate(420.238 304.754)"/><line class="d" x2="12.423" y2="12.964" transform="translate(299.244 230.213)"/><line class="d" x2="12.964" y2="12.423" transform="translate(300.865 241.016)"/><line class="d" x2="9.723" y2="9.183" transform="translate(303.025 252.899)"/><line class="d" y1="14.044" x2="21.066" transform="translate(519.626 234.534)"/><line class="d" y1="30.248" x2="43.212" transform="translate(486.677 197.263)"/><line class="d" y1="27.008" x2="36.73" transform="translate(461.29 183.76)"/><line class="d" y1="24.847" x2="32.949" transform="translate(441.304 172.957)"/><line class="d" y1="23.227" x2="28.088" transform="translate(425.64 164.314)"/><line class="d" y1="21.606" x2="24.847" transform="translate(413.216 157.832)"/><line class="d" y1="19.445" x2="23.227" transform="translate(401.873 151.891)"/><line class="d" y1="18.365" x2="21.606" transform="translate(391.07 147.029)"/><line class="d" y1="17.825" x2="20.526" transform="translate(384.588 143.248)"/><line class="d" y1="23.227" x2="7.022" transform="translate(387.289 125.963)"/><line class="d" y1="9.723" x2="31.869" transform="translate(355.96 148.65)"/><line class="f" x1="24.847" y2="8.642" transform="translate(364.872 150)"/><line class="f" x1="5.942" y2="19.445" transform="translate(389.719 130.555)"/><line class="f" x1="149.622" y1="77.242" transform="translate(390.8 148.92)"/><line class="f" x1="151.242" y1="82.103" transform="translate(388.639 151.08)"/><path class="f" d="M647.23,340.957l82.595-74.076,36.206-79.851" transform="translate(-297.628 -184.745)"/><path class="f" d="M730.982,184l-35.223,82.1L626.5,330.111" transform="translate(-288.095 -183.352)"/><path class="f" d="M611.5,323.629l59.957-57.8L704.6,184" transform="translate(-281.197 -183.352)"/><path class="f" d="M688.065,184.5l-32.409,82.643L602.98,319.381" transform="translate(-277.279 -183.582)"/><line class="g" y1="16.745" x2="74.541" transform="translate(219.572 200.234)"/><line class="g" x1="76.702" y2="17.285" transform="translate(217.951 204.015)"/><line class="g" x1="78.322" y2="17.285" transform="translate(216.871 207.256)"/><line class="g" x1="80.483" y2="17.825" transform="translate(215.251 210.497)"/><line class="g" x1="84.264" y2="18.365" transform="translate(212.55 216.979)"/><line class="g" x1="89.125" y2="19.445" transform="translate(209.309 224.541)"/><line class="g" x1="74.001" y2="15.664" transform="translate(207.688 232.643)"/><line class="g" y1="16.205" x2="76.702" transform="translate(205.528 237.505)"/><line class="g" y1="16.745" x2="81.563" transform="translate(201.206 247.227)"/><line class="g" y1="18.365" x2="86.964" transform="translate(196.345 258.031)"/><line class="g" x1="90.745" y2="18.365" transform="translate(193.104 266.673)"/><line class="g" x1="97.767" y2="19.445" transform="translate(187.163 280.717)"/><line class="g" x1="105.33" y2="20.526" transform="translate(180.681 296.381)"/><line class="g" x1="114.512" y2="21.606" transform="translate(172.578 315.287)"/><line class="g" x1="124.775" y2="22.686" transform="translate(163.396 337.973)"/><line class="g" x2="35.11" y2="38.891" transform="translate(295.733 208.877)"/><line class="g" x2="30.248" y2="32.949" transform="translate(297.353 218.059)"/><line class="g" x2="25.927" y2="27.548" transform="translate(298.434 225.621)"/><line class="g" x2="10.803" y2="10.803" transform="translate(311.938 243.987)"/><line class="g" x1="7.562" y1="7.562" transform="translate(313.018 248.848)"/><line class="g" y2="19.986" transform="translate(273.047 340.674)"/><line class="g" y2="18.905" transform="translate(273.047 299.082)"/><line class="g" y2="14.584" transform="translate(272.507 268.834)"/><line class="g" y2="10.803" transform="translate(271.966 249.388)"/><line class="g" y2="9.723" transform="translate(271.966 229.943)"/><line class="g" y2="6.482" transform="translate(271.426 215.899)"/><line class="g" y2="3.781" transform="translate(271.426 205.096)"/><line class="g" y2="2.161" transform="translate(278.988 201.315)"/><line class="g" y2="3.781" transform="translate(286.55 201.855)"/><line class="g" y2="7.022" transform="translate(278.988 207.256)"/><line class="g" y2="6.482" transform="translate(288.171 212.118)"/><line class="g" y2="8.102" transform="translate(280.609 220.22)"/><line class="g" y2="2.701" transform="translate(289.791 226.162)"/><line class="g" y2="7.292" transform="translate(316.259 252.089)"/><line class="g" y2="7.562" transform="translate(319.5 247.768)"/><line class="g" y2="5.942" transform="translate(316.259 238.585)"/><line class="g" y2="6.212" transform="translate(309.777 231.563)"/><line class="g" y2="5.942" transform="translate(302.215 223.731)"/><line class="g" y2="7.022" transform="translate(325.441 241.826)"/><line class="g" y2="5.942" transform="translate(323.821 234.264)"/><line class="g" y2="5.942" transform="translate(314.638 224.001)"/><line class="g" y2="7.292" transform="translate(311.938 226.702)"/><line class="g" y2="5.402" transform="translate(309.237 218.599)"/><line class="g" y2="5.672" transform="translate(303.835 212.118)"/><line class="g" y2="2.701" transform="translate(305.996 220.22)"/><line class="g" y2="2.701" transform="translate(319.5 235.344)"/><line class="g" y2="3.511" transform="translate(299.514 213.198)"/><line class="g" y2="5.402" transform="translate(324.361 247.768)"/><line class="g" x1="85.884" y1="135.038" transform="translate(358.391 225.621)"/><line class="g" x1="45.913" y1="116.133" transform="translate(335.164 244.527)"/><line class="g" x1="142.06" y1="155.024" transform="translate(382.698 205.636)"/><line class="g" x1="4.321" y2="11.343" transform="translate(384.858 36.568)"/><line class="g" x1="3.781" y2="10.263" transform="translate(379.457 39.269)"/><line class="g" x1="3.781" y2="10.263" transform="translate(375.676 40.889)"/><line class="g" x1="3.781" y2="9.723" transform="translate(371.895 42.51)"/><line class="g" x1="3.781" y2="9.183" transform="translate(368.113 44.13)"/><line class="g" x1="3.781" y2="9.183" transform="translate(364.332 45.751)"/><line class="g" x1="3.241" y2="8.642" transform="translate(361.632 46.831)"/><line class="g" x1="2.701" y2="8.102" transform="translate(357.85 48.992)"/><line class="g" x1="2.161" y2="8.102" transform="translate(356.23 49.532)"/><line class="g" x1="2.161" y2="7.562" transform="translate(352.989 51.152)"/><line class="g" x1="2.161" y2="7.022" transform="translate(350.829 52.233)"/><line class="g" x1="2.161" y2="6.482" transform="translate(348.668 53.313)"/><line class="g" x1="2.701" y2="7.022" transform="translate(345.967 53.853)"/><line class="g" x1="2.701" y2="6.482" transform="translate(343.807 54.933)"/><line class="g" x1="2.161" y2="6.482" transform="translate(342.186 55.474)"/><line class="g" x1="2.161" y2="5.942" transform="translate(340.026 56.554)"/><line class="g" x1="2.161" y2="6.482" transform="translate(338.405 57.094)"/><line class="g" y1="5.942" x2="2.161" transform="translate(336.785 58.174)"/><line class="g" y1="5.402" x2="2.161" transform="translate(334.624 59.255)"/><line class="g" y1="5.402" x2="2.161" transform="translate(333.544 59.795)"/><line class="g" y1="5.402" x2="2.701" transform="translate(331.923 59.795)"/><line class="g" y1="4.861" x2="2.161" transform="translate(330.843 60.875)"/><line class="g" y1="4.861" x2="2.161" transform="translate(329.222 61.415)"/><line class="g" y1="4.861" x2="2.161" transform="translate(328.142 61.955)"/><line class="g" y1="4.321" x2="2.161" transform="translate(326.522 62.496)"/><line class="g" y1="4.321" x2="2.161" transform="translate(325.441 63.036)"/><line class="g" x1="1.62" y2="4.321" transform="translate(324.361 63.576)"/><line class="g" x1="1.08" y2="4.321" transform="translate(323.281 64.116)"/><line class="g" x1="1.08" y2="3.781" transform="translate(321.66 65.196)"/><line class="g" x1="1.08" y2="3.241" transform="translate(320.58 65.736)"/><line class="g" x1="1.08" y2="3.241" transform="translate(319.5 66.277)"/><line class="g" x1="1.08" y2="3.781" transform="translate(318.419 66.277)"/><line class="g" x1="1.08" y2="3.241" transform="translate(317.339 66.817)"/><line class="g" x1="0.54" y2="3.241" transform="translate(316.259 67.357)"/><line class="g" x1="0.54" y2="3.241" transform="translate(315.179 67.897)"/><line class="g" x1="0.54" y2="2.701" transform="translate(314.098 68.437)"/><line class="g" x1="0.54" y2="2.701" transform="translate(313.018 68.977)"/><line class="g" y2="2.701" transform="translate(311.938 69.518)"/><line class="g" y2="2.161" transform="translate(310.857 70.058)"/><line class="g" y2="2.161" transform="translate(309.777 70.598)"/><line class="g" y2="1.62" transform="translate(308.697 71.138)"/><line class="g" y1="1.08" transform="translate(307.616 72.218)"/><line class="g" y1="0.81" transform="translate(306.536 72.758)"/><line class="g" y2="1.08" transform="translate(305.456 72.758)"/><line class="g" x1="6.482" y2="13.504" transform="translate(370.274 70.058)"/><line class="g" x1="5.402" y2="12.423" transform="translate(365.953 71.138)"/><line class="g" x1="4.861" y2="12.423" transform="translate(363.252 71.678)"/><line class="g" x1="4.321" y2="11.883" transform="translate(359.471 72.218)"/><line class="g" x1="4.321" y2="11.343" transform="translate(356.77 72.758)"/><line class="g" x1="3.781" y2="10.803" transform="translate(353.529 73.299)"/><line class="g" x1="3.781" y2="10.263" transform="translate(351.369 73.839)"/><line class="g" x1="3.781" y2="9.723" transform="translate(348.128 74.379)"/><line class="g" x1="3.781" y2="9.183" transform="translate(345.967 74.919)"/><line class="g" x1="3.241" y2="8.642" transform="translate(343.807 75.459)"/><line class="g" x1="3.241" y2="8.642" transform="translate(341.646 75.459)"/><line class="g" x1="3.241" y2="8.642" transform="translate(339.485 75.999)"/><line class="g" x1="3.241" y2="8.642" transform="translate(337.865 75.999)"/><line class="g" x1="3.241" y2="8.102" transform="translate(335.704 76.54)"/><line class="g" x1="3.241" y2="7.562" transform="translate(334.084 77.08)"/><line class="g" x1="3.241" y2="7.562" transform="translate(332.463 77.08)"/><line class="g" x1="2.701" y2="7.022" transform="translate(330.843 77.62)"/><line class="g" x1="2.161" y2="7.022" transform="translate(329.763 77.62)"/><line class="g" x1="2.161" y2="6.482" transform="translate(328.682 78.16)"/><line class="g" x1="2.161" y2="6.482" transform="translate(327.062 78.16)"/><line class="g" x1="2.161" y2="6.482" transform="translate(325.982 78.16)"/><line class="g" x1="2.161" y2="5.942" transform="translate(324.361 78.7)"/><line class="g" x1="2.161" y2="5.942" transform="translate(323.281 78.7)"/><line class="g" x1="2.161" y2="5.402" transform="translate(322.201 79.24)"/><line class="g" x1="2.161" y2="5.402" transform="translate(321.12 79.24)"/><line class="g" x1="2.161" y2="4.861" transform="translate(320.04 79.78)"/><line class="g" x1="2.161" y2="4.861" transform="translate(318.96 79.78)"/><line class="g" x1="2.161" y2="5.402" transform="translate(317.879 79.78)"/><line class="g" x1="1.62" y2="4.861" transform="translate(317.339 79.78)"/><line class="g" x1="1.62" y2="4.321" transform="translate(316.259 80.321)"/><line class="g" x1="1.62" y2="4.321" transform="translate(315.179 80.321)"/><line class="g" x1="1.62" y2="4.321" transform="translate(314.098 80.321)"/><line class="g" x1="1.62" y2="3.781" transform="translate(313.018 80.861)"/><line class="g" x1="1.62" y2="4.321" transform="translate(311.938 80.861)"/><line class="g" x1="1.08" y2="3.781" transform="translate(311.397 81.401)"/><line class="g" x1="1.08" y2="3.781" transform="translate(310.857 81.401)"/><line class="g" x1="1.08" y2="3.781" transform="translate(310.317 81.401)"/><line class="g" x1="1.08" y2="3.781" transform="translate(309.777 81.401)"/><line class="g" x1="1.08" y2="3.781" transform="translate(309.237 81.401)"/><line class="g" x1="1.08" y2="3.781" transform="translate(308.772 81.45)"/><line class="g" x1="1.08" y2="3.781" transform="translate(308.232 81.45)"/><line class="g" x1="1.08" y2="3.781" transform="translate(307.735 81.563)"/><line class="g" x1="1.08" y2="3.781" transform="translate(307.233 81.66)"/><line class="g" x1="1.08" y2="3.781" transform="translate(306.779 81.687)"/><line class="g" x1="1.08" y2="3.781" transform="translate(306.331 81.725)"/><line class="g" x1="1.08" y2="3.781" transform="translate(305.764 81.968)"/><line class="g" x1="1.08" y2="3.781" transform="translate(305.224 81.968)"/><line class="g" x1="1.08" y2="3.781" transform="translate(304.764 82.017)"/><line class="g" x1="1.08" y2="3.781" transform="translate(304.224 82.017)"/><line class="g" x1="0.848" y2="3.214" transform="translate(303.835 82.508)"/><line class="g" x1="0.848" y2="3.214" transform="translate(303.295 82.508)"/><line class="g" x1="0.929" y2="2.625" transform="translate(302.755 82.557)"/><line class="g" x1="0.929" y2="3.165" transform="translate(302.215 82.557)"/><path class="h" d="M553.142,336.5l-.54,2.161h-8.1v-.691Z" transform="translate(-250.387 -253.479)"/><line class="g" x1="50.774" y2="48.614" transform="translate(321.66 83.562)"/><line class="g" x1="48.614" y2="47.533" transform="translate(320.04 83.562)"/><line class="g" x1="46.453" y2="45.373" transform="translate(317.879 83.562)"/><line class="g" x1="45.373" y2="43.752" transform="translate(316.259 84.102)"/><line class="g" x1="43.212" y2="42.132" transform="translate(314.638 84.102)"/><line class="g" x1="42.672" y2="41.052" transform="translate(313.018 84.102)"/><line class="g" x1="40.511" y2="39.971" transform="translate(311.938 84.102)"/><line class="g" x1="38.891" y2="38.891" transform="translate(310.857 84.102)"/><line class="g" x1="37.811" y2="37.811" transform="translate(309.237 84.102)"/><line class="g" x1="36.73" y2="36.73" transform="translate(308.156 84.102)"/><line class="g" x1="35.11" y2="35.11" transform="translate(307.195 84.523)"/><line class="g" x1="35.11" y2="35.11" transform="translate(305.915 84.258)"/><line class="g" x1="33.949" y2="33.873" transform="translate(304.916 84.258)"/><line class="g" x1="32.868" y2="32.793" transform="translate(303.835 84.798)"/><line class="g" x1="31.788" y2="31.712" transform="translate(303.295 84.798)"/><line class="g" x1="31.129" y2="31.043" transform="translate(302.215 84.928)"/><line class="g" x1="30.589" y2="30.502" transform="translate(301.135 84.928)"/><line class="g" x1="30.049" y2="29.962" transform="translate(300.594 84.388)"/><line class="g" x1="29.341" y2="29.255" transform="translate(299.514 84.555)"/><line class="g" x1="28.482" y2="28.207" transform="translate(298.974 84.523)"/><line class="g" x1="28.088" y2="28.018" transform="translate(298.191 84.469)"/><line class="g" x1="26.197" y2="26.127" transform="translate(297.921 85.549)"/><line class="g" x1="25.911" y2="25.873" transform="translate(297.667 85.009)"/><line class="g" x1="25.447" y2="25.387" transform="translate(297.051 85.009)"/><line class="g" x1="25.068" y2="25.009" transform="translate(296.343 85.014)"/><line class="g" x1="24.442" y2="24.388" transform="translate(295.879 85.02)"/><line class="g" x1="23.864" y2="23.81" transform="translate(295.177 85.166)"/><line class="g" x1="23.318" y2="23.259" transform="translate(294.637 85.177)"/><line class="g" x1="19.418" y2="19.375" transform="translate(289.683 85.285)"/><line class="g" x1="21.277" y2="21.228" transform="translate(292.325 85.204)"/><line class="g" x1="20.985" y2="20.936" transform="translate(291.601 85.144)"/><line class="g" x1="20.699" y2="20.65" transform="translate(291.255 85.139)"/><line class="g" x1="20.488" y2="20.445" transform="translate(290.92 85.144)"/><line class="g" x1="20.148" y2="20.099" transform="translate(290.715 85.15)"/><line class="g" x1="20.072" y2="20.023" transform="translate(290.245 85.16)"/><line class="g" x1="19.71" y2="19.667" transform="translate(290.056 85.166)"/><line class="g" x1="22.649" y2="22.595" transform="translate(294.14 85.538)"/><line class="g" x1="22.087" y2="22.033" transform="translate(293.421 85.684)"/><line class="g" x1="21.53" y2="21.476" transform="translate(292.892 85.69)"/><line class="g" x1="18.268" y2="18.225" transform="translate(288.079 85.15)"/><line class="g" x1="19.332" y2="19.289" transform="translate(289.321 85.009)"/><line class="g" x1="19.111" y2="19.067" transform="translate(288.997 85.014)"/><line class="g" x1="18.916" y2="18.873" transform="translate(288.646 85.02)"/><line class="g" x1="18.554" y2="18.516" transform="translate(288.457 85.025)"/><line class="g" x1="16.475" y2="16.431" transform="translate(286.534 85.744)"/><line class="g" x1="17.533" y2="17.496" transform="translate(287.739 85.646)"/><path class="g" d="M549.4,341.37,533.02,357.715l-.94.94" transform="translate(-244.676 -255.718)"/><path class="g" d="M548.5,341.36l-16.177,16.145-1.042,1.032" transform="translate(-244.308 -255.714)"/><line class="g" x1="16.988" y2="16.945" transform="translate(286.669 85.641)"/><line class="g" x1="15.67" y2="15.627" transform="translate(285.195 85.187)"/><line class="g" x1="16.793" y2="16.756" transform="translate(286.324 85.101)"/><line class="g" x1="16.588" y2="16.55" transform="translate(285.994 85.096)"/><line class="g" x1="16.318" y2="16.28" transform="translate(285.729 85.09)"/><line class="g" x1="16.064" y2="16.021" transform="translate(285.454 85.085)"/><line class="g" x1="14.363" y2="14.325" transform="translate(283.833 85.155)"/><line class="g" x1="15.535" y2="15.497" transform="translate(284.914 85.069)"/><line class="g" x1="15.286" y2="15.254" transform="translate(284.628 85.063)"/><line class="g" x1="15.005" y2="14.968" transform="translate(284.374 85.058)"/><line class="g" x1="14.768" y2="14.73" transform="translate(284.077 85.052)"/><line class="g" x1="12.586" y2="12.553" transform="translate(282.634 85.69)"/><line class="g" x1="12.413" y2="12.38" transform="translate(282.391 85.576)"/><line class="g" x1="13.309" y2="13.277" transform="translate(283.628 85.598)"/><line class="g" x1="13.109" y2="13.082" transform="translate(283.293 85.592)"/><line class="g" x1="12.866" y2="12.839" transform="translate(283.002 85.587)"/><line class="g" x2="2.625" y2="53.621" transform="translate(341.181 2.933)"/><line class="g" x2="2.96" y2="51.801" transform="translate(338.686 5.293)"/><line class="g" x2="3.111" y2="50.191" transform="translate(335.834 7.983)"/><line class="g" x2="2.868" y2="49.289" transform="translate(334.457 9.966)"/><line class="g" x2="3.203" y2="47.474" transform="translate(331.961 12.321)"/><line class="g" x2="2.468" y2="47.204" transform="translate(330.535 13.671)"/><line class="g" x2="2.987" y2="44.735" transform="translate(328.396 16.68)"/><line class="g" x2="2.825" y2="43.785" transform="translate(326.613 18.711)"/><line class="g" x2="2.744" y2="42.564" transform="translate(324.831 20.742)"/><line class="g" x2="2.685" y2="41.684" transform="translate(323.405 22.362)"/><line class="g" x2="2.577" y2="39.971" transform="translate(322.017 24.577)"/><line class="g" x2="2.571" y2="39.831" transform="translate(320.969 25.366)"/><line class="g" x2="2.49" y2="38.578" transform="translate(319.543 26.991)"/><line class="g" x2="2.355" y2="37.098" transform="translate(318.522 28.968)"/><line class="g" x2="2.285" y2="36.088" transform="translate(317.453 30.189)"/><line class="g" x2="2.198" y2="34.878" transform="translate(316.405 31.583)"/><line class="g" x2="2.204" y2="34.98" transform="translate(315.335 32.798)"/><line class="g" x2="2.171" y2="34.418" transform="translate(314.217 33.252)"/><line class="g" x2="2.096" y2="33.192" transform="translate(313.158 34.705)"/><line class="g" x2="1.955" y2="32.852" transform="translate(312.219 35.736)"/><line class="g" x2="2.042" y2="32.242" transform="translate(311.392 36.579)"/><line class="g" x2="1.912" y2="30.265" transform="translate(310.782 38.918)"/><line class="g" x2="1.923" y2="30.324" transform="translate(310.015 38.967)"/><line class="g" x2="1.955" y2="30.821" transform="translate(309.302 39.777)"/><line class="g" x2="1.923" y2="30.335" transform="translate(308.589 40.587)"/><line class="g" x2="1.885" y2="29.735" transform="translate(307.876 41.403)"/><line class="g" x2="1.831" y2="28.936" transform="translate(307.141 42.445)"/><line class="g" x2="1.788" y2="28.261" transform="translate(306.428 43.255)"/><line class="g" x2="1.674" y2="26.451" transform="translate(303.576 46.502)"/><line class="g" x2="1.75" y2="27.591" transform="translate(305.931 44.357)"/><line class="g" x2="1.707" y2="26.883" transform="translate(305.191 45.4)"/><line class="g" x2="1.669" y2="26.343" transform="translate(304.478 46.21)"/><line class="g" x2="1.637" y2="24.971" transform="translate(301.356 48.516)"/><line class="g" x2="1.701" y2="25.949" transform="translate(302.771 46.691)"/><line class="g" x2="1.685" y2="25.657" transform="translate(302.415 47.101)"/><line class="g" x2="1.68" y2="25.56" transform="translate(302.058 47.517)"/><line class="g" x2="1.669" y2="25.366" transform="translate(301.702 47.933)"/><line class="g" x2="1.577" y2="24.021" transform="translate(299.438 50.499)"/><line class="g" x2="1.637" y2="24.966" transform="translate(300.854 48.673)"/><line class="g" x2="1.631" y2="24.804" transform="translate(300.497 49.089)"/><line class="g" x2="1.61" y2="24.523" transform="translate(300.141 49.505)"/><line class="g" x2="1.718" y2="26.16" transform="translate(299.79 49.915)"/><line class="g" x2="1.523" y2="23.216" transform="translate(297.688 53.405)"/><line class="g" x2="1.512" y2="23.048" transform="translate(299.109 51.639)"/><path class="g" d="M553.09,279.16l1.5,22.8.016.3" transform="translate(-254.337 -227.111)"/><path class="g" d="M552.43,279.9l1.48,22.562.016.243" transform="translate(-254.034 -227.451)"/><line class="g" x2="1.464" y2="22.319" transform="translate(298.04 52.848)"/><line class="g" x2="1.572" y2="21.801" transform="translate(295.733 54.933)"/><line class="g" x2="1.55" y2="23.669" transform="translate(297.278 52.897)"/><line class="g" x2="1.534" y2="23.383" transform="translate(296.921 53.297)"/><line class="g" x2="1.507" y2="23.005" transform="translate(296.565 53.691)"/><line class="g" x2="1.485" y2="22.638" transform="translate(296.208 54.091)"/><line class="g" x2="2.371" y2="18.705" transform="translate(293.032 58.174)"/><line class="g" x2="1.739" y2="20.769" transform="translate(295.193 56.014)"/><line class="g" x2="1.901" y2="20.817" transform="translate(294.653 56.014)"/><line class="g" x2="2.058" y2="19.737" transform="translate(294.113 57.094)"/><line class="g" x2="2.22" y2="19.262" transform="translate(293.573 57.634)"/><line class="g" x2="2.814" y2="15.556" transform="translate(290.872 61.415)"/><line class="g" x2="2.982" y2="15.14" transform="translate(290.332 61.955)"/><line class="g" x2="2.323" y2="17.922" transform="translate(292.492 58.715)"/><line class="g" x2="2.49" y2="16.961" transform="translate(291.952 59.795)"/><line class="g" x2="2.647" y2="16.475" transform="translate(291.412 60.335)"/><line class="g" x2="1.08" y2="18.365" transform="translate(398.902 0.378)"/><line class="g" x2="1.08" y2="33.489" transform="translate(392.42 0.378)"/><line class="g" x2="1.08" y2="36.73" transform="translate(387.019 0.378)"/><line class="g" x2="1.08" y2="38.891" transform="translate(381.617 0.378)"/><line class="g" x2="1.62" y2="40.511" transform="translate(377.836 0.378)"/><line class="g" x2="2.161" y2="41.592" transform="translate(372.435 0.378)"/><line class="g" x2="2.161" y2="43.752" transform="translate(368.654 0.378)"/><line class="g" x2="2.701" y2="45.373" transform="translate(364.332 0.378)"/><line class="g" x2="3.241" y2="46.453" transform="translate(361.632 0.378)"/><line class="g" x1="2.701" y1="48.614" transform="translate(357.85 0.378)"/><line class="g" x1="3.241" y1="48.614" transform="translate(355.15 0.918)"/><line class="g" x1="3.781" y1="50.774" transform="translate(351.369 0.378)"/><line class="g" x2="4.321" y2="51.855" transform="translate(348.668 0.378)"/><line class="g" x2="4.321" y2="52.935" transform="translate(345.967 0.378)"/><line class="g" x2="3.781" y2="53.475" transform="translate(343.266 0.378)"/><path class="g" d="M642.5,337.611l80.807-72.359,37.06-80.753" transform="translate(-295.453 -183.582)"/><path class="g" d="M748.512,184.5l-35.893,81.53L637.5,334.295" transform="translate(-293.153 -183.582)"/><path class="g" d="M630.18,331.929l71.614-65.709,35.634-81.72" transform="translate(-289.787 -183.582)"/><line class="g" x1="28.434" y2="67.249" transform="translate(411.326 0.648)"/><line class="g" x1="39.129" y2="35.699" transform="translate(337.325 110.029)"/><line class="g" y1="34.186" x2="36.887" transform="translate(334.084 108.77)"/><line class="g" x1="35.456" y2="32.949" transform="translate(331.578 107.868)"/><path class="g" d="M609.06,322.185l58.553-55.36L700.664,184.5" transform="translate(-280.075 -183.582)"/><path class="g" d="M605.5,317.8l53.183-50.99L691.854,184" transform="translate(-278.438 -183.352)"/><path class="g" d="M695.03,184l-32.938,82.692L605.5,320.928" transform="translate(-278.438 -183.352)"/><line class="g" y1="69.41" x2="28.579" transform="translate(398.362 0.648)"/><line class="g" x1="28.768" y2="68.383" transform="translate(404.525 0.648)"/><line class="g" x2="6.093" y2="4.397" transform="translate(352.838 148.844)"/><line class="g" x2="3.684" y2="2.658" transform="translate(345.573 143.594)"/><line class="g" x2="3.533" y2="2.55" transform="translate(338.74 138.662)"/><line class="g" x2="2.841" y2="2.053" transform="translate(333.176 134.638)"/><line class="g" x2="1.674" y2="1.21" transform="translate(329.763 132.175)"/><line class="g" x2="3.949" y2="2.323" transform="translate(356.603 139.575)"/><line class="g" x2="3.565" y2="2.096" transform="translate(348.981 135.092)"/><line class="g" x2="2.965" y2="1.745" transform="translate(342.094 131.041)"/><line class="g" x2="1.939" y2="1.14" transform="translate(337.006 128.048)"/><line class="g" x2="1.977" y2="1.161" transform="translate(333.004 125.693)"/><line class="g" x2="6.698" y2="3.295" transform="translate(367.897 135.362)"/><line class="g" x2="4.375" y2="2.155" transform="translate(359.206 131.084)"/><line class="g" x2="4.159" y2="2.047" transform="translate(351.255 127.173)"/><line class="g" x2="3.641" y2="1.793" transform="translate(344.347 123.77)"/><line class="g" x2="1.88" y2="0.924" transform="translate(340.566 121.912)"/><line class="g" x1="2.604" y1="0.983" transform="translate(343.266 115.43)"/><line class="g" x1="2.371" y1="0.891" transform="translate(348.209 117.294)"/><line class="g" x1="3.468" y1="1.307" transform="translate(354.383 119.622)"/><line class="g" x1="4.094" y1="1.539" transform="translate(362.561 122.706)"/><line class="g" x1="4.743" y1="1.788" transform="translate(371.473 126.066)"/><line class="g" x2="8.891" y2="2.658" transform="translate(384.07 120.875)"/><line class="g" x2="5.18" y2="1.55" transform="translate(373.704 117.78)"/><line class="g" x2="5.088" y2="1.523" transform="translate(364.284 114.966)"/><line class="g" x2="4.127" y2="1.237" transform="translate(356.457 112.627)"/><line class="g" x2="2.523" y2="0.756" transform="translate(351.369 111.109)"/><line class="g" x1="3.181" y1="0.675" transform="translate(359.314 106.248)"/><line class="g" x1="4.732" y1="1.005" transform="translate(376.48 109.888)"/><line class="g" x1="5.569" y1="1.183" transform="translate(386.851 112.087)"/><line class="g" x2="10.441" y2="1.507" transform="translate(400.884 105.821)"/><line class="g" x2="6.082" y2="0.88" transform="translate(388.645 104.049)"/><line class="g" x2="4.716" y2="0.681" transform="translate(368.594 101.154)"/><line class="g" x2="2.814" y2="0.405" transform="translate(362.712 100.306)"/><line class="g" x1="1.264" y1="0.081" transform="translate(367.033 94.905)"/><line class="g" x1="3.392" y1="0.216" transform="translate(371.306 95.169)"/><line class="g" x1="5.844" y1="0.362" transform="translate(390.773 96.39)"/><line class="g" x1="6.979" y1="0.438" transform="translate(403.266 97.168)"/><line class="g" x2="12.542" y2="0.238" transform="translate(418.769 89.806)"/><line class="g" x2="6.844" y2="0.135" transform="translate(404.487 89.53)"/><line class="g" x2="5.121" y2="0.097" transform="translate(381.353 89.093)"/><line class="g" x2="3.127" y2="0.059" transform="translate(374.595 88.963)"/><line class="g" x1="2.171" y2="0.308" transform="translate(382.698 71.91)"/><line class="g" x1="4.121" y2="0.589" transform="translate(388.407 70.814)"/><line class="g" x1="7.47" y2="1.07" transform="translate(411.326 67.06)"/><line class="g" x1="8.896" y2="1.269" transform="translate(426.736 64.656)"/><line class="g" y1="2.798" x2="13.758" transform="translate(441.32 49.532)"/><line class="g" y1="1.669" x2="8.221" transform="translate(423.657 54.247)"/><line class="g" y1="1.415" x2="6.941" transform="translate(408.765 57.532)"/><line class="g" y1="1.248" x2="6.131" transform="translate(396.277 60.238)"/><line class="g" y1="0.686" x2="3.376" transform="translate(388.639 62.35)"/><line class="g" x1="2.55" y2="0.691" transform="translate(389.179 54.782)"/><line class="g" x1="4.418" y2="1.194" transform="translate(395.429 52.584)"/><line class="g" x1="6.66" y2="1.804" transform="translate(406.275 49.035)"/><line class="g" x1="8.372" y2="2.269" transform="translate(420.125 44.816)"/><line class="g" x1="9.923" y2="2.69" transform="translate(437.053 39.809)"/><line class="g" y1="4.57" x2="13.812" transform="translate(453.149 21.984)"/><line class="g" y1="2.933" x2="8.875" transform="translate(433.65 30.07)"/><line class="g" y1="2.458" x2="7.427" transform="translate(417.424 35.915)"/><line class="g" y1="2.22" x2="6.725" transform="translate(403.736 40.679)"/><line class="g" y1="1.334" x2="4.035" transform="translate(395.121 44.417)"/><line class="g" x1="2.582" y2="1.015" transform="translate(396.201 37.173)"/><line class="g" x1="4.683" y2="1.842" transform="translate(402.71 33.787)"/><line class="g" x1="7.281" y2="2.863" transform="translate(414.437 28.158)"/><line class="g" x1="9.258" y2="3.641" transform="translate(429.41 21.493)"/><line class="g" x1="11.5" y2="4.521" transform="translate(447.899 13.342)"/><line class="g" y1="4.51" x2="9.734" transform="translate(444.264 4.159)"/><line class="g" y1="3.705" x2="8" transform="translate(426.45 13.212)"/><line class="g" y1="3.435" x2="7.422" transform="translate(411.358 20.472)"/><line class="g" y1="1.728" x2="3.732" transform="translate(402.683 26.197)"/><line class="g" x1="2.901" y2="1.518" transform="translate(403.223 18.846)"/><line class="g" x1="5.131" y2="2.685" transform="translate(410.186 14.044)"/><line class="g" x1="8.037" y2="4.197" transform="translate(423.095 5.785)"/><line class="g" y1="2.047" x2="3.073" transform="translate(420.135 0.378)"/><line class="g" y1="2.733" x2="4.1" transform="translate(410.245 6.287)"/><line class="f" y1="245.769" x2="111.811" transform="translate(145.571 114.89)"/><line class="i" x1="35.65" y2="89.665" transform="translate(222.813 118.671)"/><line class="i" y1="85.884" x2="29.168" transform="translate(230.105 121.102)"/><line class="i" x1="23.767" y2="81.023" transform="translate(236.046 124.343)"/><line class="i" y1="77.782" x2="19.445" transform="translate(240.908 126.504)"/><line class="i" y1="72.92" x2="16.205" transform="translate(244.689 130.285)"/><line class="i" y1="70.76" x2="12.964" transform="translate(248.47 131.905)"/><line class="i" x1="133.417" y2="248.47" transform="translate(123.695 112.46)"/><line class="i" y1="138.279" x2="88.585" transform="translate(93.986 222.651)"/><line class="i" y1="254.952" x2="200.936" transform="translate(54.555 105.978)"/><line class="i" x1="254.952" y2="256.572" transform="translate(0 102.737)"/><line class="i" y1="193.374" x2="254.411" transform="translate(0 99.496)"/><line class="i" y1="66.439" x2="10.803" transform="translate(251.171 135.686)"/><line class="i" y1="63.198" x2="9.723" transform="translate(253.331 138.387)"/><line class="i" y1="58.877" x2="8.102" transform="translate(255.492 142.168)"/><line class="i" y1="83.724" x2="156.104" transform="translate(0 149.19)"/><line class="i" y1="83.183" x2="252.791" transform="translate(0 93.014)"/><line class="i" x1="252.251" y2="34.03" transform="translate(0 89.773)"/><line class="i" x2="251.171" y2="11.883" transform="translate(0 74.649)"/><line class="i" x2="3.241" y2="0.54" transform="translate(247.389 82.211)"/><line class="i" y1="1.62" x2="2.701" transform="translate(250.63 96.255)"/><line class="i" x1="210.659" y1="78.862" transform="translate(38.891 0.648)"/><line class="i" x2="145.301" y2="75.621" transform="translate(103.709 0.648)"/><line class="i" x1="108.571" y1="71.84" transform="translate(139.359 0.648)"/><line class="i" x2="86.424" y2="68.599" transform="translate(160.965 0.648)"/><line class="i" x1="71.3" y1="65.358" transform="translate(175.549 0.648)"/><line class="i" x2="59.417" y2="61.577" transform="translate(186.352 0.648)"/><line class="i" x1="50.774" y1="58.336" transform="translate(194.455 0.648)"/><line class="i" x2="43.212" y2="54.015" transform="translate(200.936 0.648)"/><line class="i" x1="37.27" y1="50.234" transform="translate(205.798 0.648)"/><line class="i" x2="32.409" y2="46.453" transform="translate(210.119 0.648)"/><line class="i" x2="28.088" y2="43.752" transform="translate(213.9 0.648)"/><line class="i" x1="122.074" y1="25.927" transform="translate(0 29.276)"/><line class="i" x2="29.168" y2="39.971" transform="translate(0 320.958)"/><line class="i" x2="84.264" y2="133.417" transform="translate(0 227.512)"/><line class="i" x2="119.914" y2="211.739" transform="translate(0 149.19)"/><line class="i" x2="148.002" y2="286.28" transform="translate(0 74.649)"/><line class="i" x1="169.067" y1="350.558" transform="translate(0 10.371)"/><line class="i" x2="150.702" y2="334.354" transform="translate(22.686 0.648)"/><line class="i" x1="134.498" y1="317.609" transform="translate(45.373 0.648)"/><line class="i" x2="122.074" y2="303.565" transform="translate(63.738 0.648)"/><line class="i" x1="111.811" y1="289.521" transform="translate(79.402 0.648)"/><line class="i" x2="103.709" y2="278.718" transform="translate(91.826 0.648)"/><line class="i" x1="89.665" y1="259.273" transform="translate(113.432 0.648)"/><line class="i" x2="84.804" y2="251.171" transform="translate(121.534 0.648)"/><line class="i" x1="79.942" y1="243.068" transform="translate(129.096 0.648)"/><line class="i" x2="76.702" y2="236.586" transform="translate(135.038 0.648)"/><line class="i" x2="69.68" y2="223.623" transform="translate(147.461 0.648)"/><line class="i" x1="66.439" y1="218.761" transform="translate(152.323 0.648)"/><line class="i" x2="63.738" y2="212.82" transform="translate(156.644 0.648)"/><line class="i" x1="61.577" y1="209.039" transform="translate(160.965 0.648)"/><line class="i" x1="60.497" y1="207.418" transform="translate(164.746 0.648)"/><line class="i" x2="58.877" y2="206.878" transform="translate(168.527 0.648)"/><line class="i" x1="58.336" y1="206.338" transform="translate(171.228 0.648)"/><line class="i" x1="57.359" y1="206.862" transform="translate(174.366 0.124)"/><line class="i" x1="56.819" y1="205.782" transform="translate(177.067 0.124)"/><line class="i" x1="56.278" y1="204.701" transform="translate(179.768 0.664)"/><line class="i" x1="55.198" y1="204.161" transform="translate(182.469 1.205)"/><line class="i" x2="55.009" y2="204.766" transform="translate(184.278 0.6)"/><line class="i" x1="54.469" y1="203.686" transform="translate(186.439 0.6)"/><line class="i" x1="54.031" y1="203.67" transform="translate(188.497 0.616)"/><line class="i" x1="52.951" y1="203.129" transform="translate(190.657 0.616)"/><line class="i" x1="51.871" y1="202.049" transform="translate(196.599 0.616)"/><line class="i" x1="51.331" y1="201.509" transform="translate(198.219 1.156)"/><line class="i" x1="51.871" y1="202.049" transform="translate(199.111 0.848)"/><line class="i" x1="51.331" y1="201.509" transform="translate(200.186 0.735)"/><line class="i" x1="51.871" y1="202.049" transform="translate(200.996 0.54)"/><line class="i" x1="51.331" y1="201.509" transform="translate(202.541 0.81)"/><line class="i" x1="51.865" y1="202.044" transform="translate(203.308)"/><line class="i" x1="51.325" y1="201.504" transform="translate(204.928 0.54)"/><path class="i" d="M433.165,385.969l-.794-3.1L381.3,183.92" transform="translate(-175.34 -183.315)"/><path class="j" d="M434.715,385.5l-1.032-4.051L383.39,183.99" transform="translate(-176.301 -183.347)"/><line class="i" x1="49.699" y1="193.596" transform="translate(208.126 0.702)"/><line class="i" x1="49.046" y1="192.532" transform="translate(208.92 0.475)"/><line class="i" x1="49.213" y1="191.689" transform="translate(209.795 0.853)"/><path class="j" d="M438.385,375.244l-.729-2.863L389.68,184.03" transform="translate(-179.194 -183.366)"/><line class="i" x1="47.155" y1="183.689" transform="translate(212.409 0.718)"/><line class="i" x1="46.928" y1="184.23" transform="translate(212.587 1.869)"/><line class="i" x1="47.749" y1="186.001" transform="translate(211.226 0.767)"/><line class="i" x1="47.776" y1="182.728" transform="translate(211.766 0.691)"/><line class="i" x1="45.972" y1="179.06" transform="translate(213.97 1.113)"/><line class="i" x1="45.756" y1="179.633" transform="translate(213.835 0.713)"/><line class="i" x1="45.578" y1="177.542" transform="translate(214.829 0.038)"/><line class="i" x1="45.367" y1="178.11" transform="translate(214.494 0.637)"/><line class="i" x1="44.816" y1="174.577" transform="translate(215.596 0.691)"/><line class="i" x1="43.147" y1="169.386" transform="translate(217.989 2.063)"/><line class="i" x1="46.448" y1="180.929" transform="translate(213.03 0.745)"/><line class="i" x1="45.081" y1="176.97" transform="translate(214.97 0.378)"/><line class="i" x1="44.519" y1="173.41" transform="translate(216.088 0.508)"/><line class="i" x1="42.683" y1="167.56" transform="translate(218.319 4.548)"/><line class="i" x1="45.167" y1="175.944" transform="translate(215.213 0.335)"/><line class="i" x1="43.796" y1="171.936" transform="translate(217.049 2.063)"/><line class="i" x1="40.944" y1="160.268" transform="translate(220.954 6.855)"/><line class="i" x1="44.622" y1="173.805" transform="translate(215.861 0.913)"/><line class="i" x1="42.478" y1="165.448" transform="translate(219.118 2.868)"/><line class="i" x1="40.306" y1="158.227" transform="translate(221.397 9.215)"/><line class="i" x1="43.995" y1="171.379" transform="translate(216.871 0.881)"/><line class="i" x1="42.532" y1="166.95" transform="translate(219.064 3.414)"/><line class="i" x1="41.77" y1="161.133" transform="translate(220.047 5.099)"/><line class="i" x1="38.389" y1="150.692" transform="translate(223.709 12.413)"/><line class="i" x1="43.785" y1="170.558" transform="translate(217.757 2.026)"/><line class="i" x1="42.375" y1="165.459" transform="translate(219.534 3.695)"/><line class="i" x1="40.398" y1="157.362" transform="translate(221.468 7.951)"/><line class="i" x1="38.129" y1="149.671" transform="translate(224.163 12.613)"/><line class="i" x1="44.217" y1="172.233" transform="translate(216.558 0.751)"/><line class="i" x1="42.877" y1="169.057" transform="translate(218.675 2.83)"/><line class="i" x1="41.197" y1="160.49" transform="translate(220.549 6.196)"/><line class="i" x1="39.577" y1="155.369" transform="translate(222.667 10.365)"/><line class="i" x1="39.69" y1="154.613" transform="translate(222.418 9.626)"/><line class="i" x1="37.929" y1="148.904" transform="translate(224.449 12.207)"/><line class="i" x1="34.375" y1="134.952" transform="translate(228.938 21.25)"/><line class="i" x1="34.759" y1="135.411" transform="translate(228.495 19.429)"/><line class="i" x1="32.863" y1="128.999" transform="translate(230.936 22.983)"/><line class="i" x1="23.788" y1="92.668" transform="translate(235.603 31.815)"/><line class="i" x1="36.779" y1="143.254" transform="translate(226.037 14.789)"/><line class="i" x1="34.894" y1="136.977" transform="translate(228.203 19.505)"/><line class="i" x1="33.468" y1="130.711" transform="translate(230.105 21.174)"/><line class="i" x1="30.492" y1="119.703" transform="translate(233.616 27.839)"/><line class="i" x1="31.426" y1="122.409" transform="translate(232.751 26.964)"/><line class="i" x1="17.76" y1="69.717" transform="translate(237.569 34.856)"/><line class="i" x1="31.55" y1="123.846" transform="translate(232.249 26.224)"/><line class="i" x1="23.156" y1="90.2" transform="translate(235.657 30.697)"/><line class="i" x1="15.086" y1="59.233" transform="translate(237.85 35.083)"/><line class="i" x1="37.26" y1="145.16" transform="translate(225.632 14.968)"/><line class="i" x1="36.206" y1="142.146" transform="translate(226.432 18.36)"/><line class="i" x1="33.846" y1="131.829" transform="translate(229.575 21.725)"/><line class="i" x1="30.999" y1="121.696" transform="translate(233.021 26.727)"/><line class="i" x1="33.381" y1="130.015" transform="translate(230.137 22.794)"/><line class="i" x1="29.795" y1="116.959" transform="translate(234.323 29.627)"/><line class="i" x1="20.326" y1="79.192" transform="translate(236.446 32.685)"/><line class="i" x1="12.218" y1="47.971" transform="translate(238.742 36.93)"/><line class="i" x1="35.952" y1="140.045" transform="translate(226.993 17.571)"/><line class="i" x1="31.729" y1="124.554" transform="translate(231.979 26.23)"/><line class="i" x1="29.833" y1="116.197" transform="translate(234.928 30.502)"/><line class="i" x1="7.324" y1="28.747" transform="translate(239.644 38.853)"/><line class="i" x1="103.709" y1="24.307" transform="translate(436.443 124.343)"/><line class="i" x2="90.745" y2="11.343" transform="translate(449.406 101.116)"/><line class="i" x2="42.132" y2="2.161" transform="translate(498.02 95.175)"/><line class="i" x2="64.278" y2="11.883" transform="translate(475.874 117.861)"/><line class="i" x2="31.869" y2="0.54" transform="translate(508.283 85.452)"/><line class="i" x2="23.227" transform="translate(516.925 73.569)"/><line class="i" x2="21.066" transform="translate(519.086 64.386)"/><line class="i" x2="14.584" transform="translate(525.568 55.744)"/><line class="i" x2="8.642" transform="translate(531.509 47.101)"/><line class="i" x2="4.321" transform="translate(535.831 39.539)"/><line class="i" x2="105.87" y2="95.607" transform="translate(286.28 102.197)"/><line class="i" x2="105.816" y2="96.466" transform="translate(285.74 102.197)"/><line class="i" x2="106.388" y2="98.167" transform="translate(284.12 101.116)"/><line class="i" x2="106.313" y2="100.155" transform="translate(283.04 100.036)"/><line class="i" x2="105.897" y2="101.203" transform="translate(283.04 100.036)"/><line class="i" x2="107.469" y2="103.682" transform="translate(280.879 98.416)"/><line class="i" x2="108.036" y2="105.384" transform="translate(279.258 97.335)"/><line class="i" x2="104.184" y2="103.05" transform="translate(281.959 100.576)"/><line class="i" x2="101.035" y2="100.663" transform="translate(284.12 103.277)"/><line class="i" x2="93.425" y2="93.959" transform="translate(291.142 110.839)"/><line class="i" x2="93.992" y2="95.661" transform="translate(289.521 109.759)"/><line class="i" x2="90.681" y2="93.868" transform="translate(291.682 112.46)"/><line class="i" x2="83.21" y2="86.851" transform="translate(298.164 120.022)"/><line class="i" x2="75.281" y2="80.288" transform="translate(305.504 128.124)"/><line class="i" x2="75.281" y2="80.283" transform="translate(304.759 128.648)"/><line class="i" x2="66.39" y2="72.31" transform="translate(312.829 137.382)"/><line class="i" x2="66.39" y2="72.316" transform="translate(311.792 137.69)"/><line class="i" x2="66.082" y2="72.866" transform="translate(311.668 137.847)"/><line class="i" x2="60.492" y2="66.919" transform="translate(316.529 144.329)"/><line class="i" x2="41.851" y2="46.086" transform="translate(334.354 165.935)"/><line class="i" x2="10.803" y2="3.241" transform="translate(299.784 76.269)"/><line class="i" x2="12.423" y2="3.241" transform="translate(303.565 75.189)"/></g><g transform="translate(120.416 183.448)"><path class="k" d="M222.93,275.23l126.973,31.2v2.458L227.656,288.34Z" transform="translate(-222.93 -225.952)"/><path class="k" d="M285.21,407.966l96.2-46.826.648,2.355-93.419,53.956Z" transform="translate(-251.569 -265.458)"/><path class="k" d="M334.97,495.023,408.177,388.5v2.1L337.914,503.174Z" transform="translate(-274.451 -278.039)"/><path class="k" d="M679.5,348.471l25.765-24.755,5.563-13.055,12.964-2.161L717.5,323.414,688.92,350.632Z" transform="translate(-432.883 -241.251)"/><path class="l" d="M359.532,560.314l73.3-15.934,41.5,46.728,3.219-2.685L431.912,539l-69.68,16.2L302.6,707.349" transform="translate(-259.566 -347.246)"/><path class="l" d="M693.552,514.851,840.2,645.141V580.063L681.128,476.5H652.5Z" transform="translate(-420.467 -318.506)"/><path class="k" d="M874.921,468.434,728,411l5.672,17.555,141.25,60.7Z" transform="translate(-455.186 -288.386)"/><path class="k" d="M518.627,353.891l12.315-12.175-6.26-.216-9.183,9.723Z" transform="translate(-357.468 -256.426)"/><path class="k" d="M533.955,298.52l3.349,15.113-2.976.918-3.128-12.7Z" transform="translate(-364.687 -236.662)"/><line class="i" x1="72.38" y1="229.564" transform="translate(21.644 0)"/><path class="j" d="M750.4,334.54l-8.642-.54L654.54,410.529l4.105,4.726Z" transform="translate(-421.405 -252.977)"/><path class="j" d="M786.015,327.68,732,314.177l45.216-49.224L813.023,184h63.738v31.869l-26.948,47.609Z" transform="translate(-457.025 -184)"/></g></g><g class="m" transform="translate(13 35.692)"><rect class="n" width="558" height="472"/><rect class="o" x="1" y="1" width="556" height="470"/></g></g></svg>